<?xml version="1.0" standalone="no"?>
<!DOCTYPE svg PUBLIC "-//W3C//DTD SVG 20010904//EN"
 "http://www.w3.org/TR/2001/REC-SVG-20010904/DTD/svg10.dtd">
<svg version="1.0" xmlns="http://www.w3.org/2000/svg"
 width="256.000000pt" height="256.000000pt" viewBox="0 0 256.000000 256.000000"
 preserveAspectRatio="xMidYMid meet">

<g transform="translate(0.000000,256.000000) scale(0.100000,-0.100000)"
fill="#000000" stroke="none">
<path d="M1330 2022 c-14 -5 -13 -159 2 -164 9 -3 9 -12 0 -38 -7 -18 -12 -76
-12 -129 -1 -82 -4 -100 -21 -121 -19 -22 -22 -23 -30 -7 -5 9 -30 28 -55 43
-83 49 -195 22 -245 -60 -16 -26 -23 -30 -57 -28 -41 3 -92 -27 -92 -54 0 -10
-12 -14 -39 -14 -28 0 -45 -7 -65 -26 -26 -27 -26 -27 -26 -186 0 -154 -1
-158 -19 -148 -22 11 -71 13 -96 4 -10 -4 -23 -21 -30 -37 -11 -26 -9 -43 11
-119 28 -105 43 -136 92 -190 24 -26 32 -43 25 -45 -9 -3 -13 -29 -13 -83 0
-62 3 -79 16 -84 20 -8 528 -8 548 0 13 5 16 22 16 84 0 51 -4 80 -12 82 -9 3
-9 12 0 38 7 19 12 94 12 182 0 147 0 149 21 138 16 -9 29 -6 67 16 26 15 62
38 79 52 l33 24 26 -31 c21 -25 33 -31 66 -31 31 0 47 -6 64 -25 16 -17 34
-25 57 -25 37 0 87 32 87 56 0 10 12 14 39 14 28 0 45 7 65 26 26 27 26 27 26
186 0 154 1 158 19 148 22 -11 71 -13 96 -4 10 4 23 21 30 37 11 26 9 43 -11
119 -28 105 -43 136 -92 190 -24 26 -32 43 -24 45 8 3 12 29 12 84 0 56 -4 79
-12 80 -53 2 -550 3 -558 1z m520 -82 l0 -29 -240 -3 -240 -3 0 33 0 32 240 0
240 0 0 -30z m14 -152 c59 -60 64 -68 90 -161 22 -78 25 -101 16 -113 -30 -35
-64 -9 -91 69 -10 29 -18 37 -34 35 -19 -3 -20 -11 -25 -228 l-5 -225 -24 -3
c-45 -7 -51 17 -51 195 0 156 -1 163 -20 163 -19 0 -20 -7 -20 -204 0 -173 -2
-207 -16 -220 -18 -19 -20 -19 -45 -6 -18 10 -19 23 -19 203 0 165 -3 198 -19
232 -34 77 -100 112 -191 103 l-40 -4 0 84 c0 55 5 93 15 112 l16 30 200 0
201 0 62 -62z m-716 -215 c-10 -2 -28 -2 -40 0 -13 2 -5 4 17 4 22 1 32 -1 23
-4z m310 0 c-10 -2 -28 -2 -40 0 -13 2 -5 4 17 4 22 1 32 -1 23 -4z m-378 -7
c0 -2 -7 -7 -16 -10 -8 -3 -12 -2 -9 4 6 10 25 14 25 6z m441 -17 l24 -20 -30
17 c-39 24 -40 24 -28 24 6 0 21 -9 34 -21z m-161 7 c0 -2 -8 -10 -17 -17 -16
-13 -17 -12 -4 4 13 16 21 21 21 13z m-121 -50 c-3 -3 -11 5 -18 17 -13 21
-12 21 5 5 10 -10 16 -20 13 -22z m318 -43 c-3 -10 -5 -4 -5 12 0 17 2 24 5
18 2 -7 2 -21 0 -30z m-310 -5 c-3 -7 -5 -2 -5 12 0 14 2 19 5 13 2 -7 2 -19
0 -25z m70 0 c-3 -7 -5 -2 -5 12 0 14 2 19 5 13 2 -7 2 -19 0 -25z m-394 10
c14 -11 17 -39 19 -203 3 -182 4 -190 23 -190 19 0 20 8 23 108 l3 108 39 -50
c39 -50 40 -52 40 -135 0 -65 3 -85 15 -90 22 -8 37 30 33 85 -1 27 -2 49 0
49 2 0 19 -12 38 -26 l34 -26 0 -165 c0 -127 -3 -171 -15 -193 l-16 -30 -200
0 -201 0 -62 62 c-55 56 -64 71 -84 138 -37 131 -37 128 -8 141 34 16 49 3 72
-62 15 -40 22 -49 39 -47 19 3 20 11 25 228 l5 225 24 3 c45 7 51 -17 51 -195
0 -156 1 -163 20 -163 19 0 20 7 20 204 0 173 2 207 16 220 19 19 25 20 47 4z
m84 -55 c-3 -10 -5 -2 -5 17 0 19 2 27 5 18 2 -10 2 -26 0 -35z m274 9 c-7 -2
-18 1 -23 6 -8 8 -4 9 13 5 13 -4 18 -8 10 -11z m276 -14 c-3 -8 -6 -5 -6 6
-1 11 2 17 5 13 3 -3 4 -12 1 -19z m-26 -71 c-10 -9 -11 -8 -5 6 3 10 9 15 12
12 3 -3 0 -11 -7 -18z m-20 -35 c-5 -10 -18 -25 -27 -33 -11 -9 -9 -2 6 19 26
35 36 42 21 14z m-421 -37 c13 -14 21 -25 18 -25 -2 0 -15 11 -28 25 -13 14
-21 25 -18 25 2 0 15 -11 28 -25z m467 -123 c-20 -19 -55 -7 -63 23 -4 17 4
36 33 72 l38 49 3 -65 c2 -46 -1 -68 -11 -79z m-407 63 c13 -14 21 -25 18 -25
-2 0 -15 11 -28 25 -13 14 -21 25 -18 25 2 0 15 -11 28 -25z m270 1 c0 -2 -8
-10 -17 -17 -16 -13 -17 -12 -4 4 13 16 21 21 21 13z m-45 -25 c3 -5 2 -12 -3
-15 -5 -3 -9 1 -9 9 0 17 3 19 12 6z m-185 -558 l0 -38 -240 0 -240 0 0 38 0
37 240 0 240 0 0 -37z"/>
<path d="M1040 1985 c0 -28 4 -35 20 -35 16 0 20 7 20 35 0 28 -4 35 -20 35
-16 0 -20 -7 -20 -35z"/>
<path d="M945 1920 c-4 -7 0 -19 8 -27 21 -21 70 -9 65 15 -4 20 -62 29 -73
12z"/>
<path d="M1103 1914 c-6 -17 12 -34 38 -34 21 0 43 26 34 40 -10 16 -65 12
-72 -6z"/>
<path d="M1044 1857 c-9 -25 0 -62 16 -62 10 0 15 10 15 34 0 36 -21 54 -31
28z"/>
<path d="M642 1801 c-19 -12 -11 -65 10 -69 12 -2 19 5 24 23 8 31 -13 59 -34
46z"/>
<path d="M537 1697 c-8 -21 1 -27 40 -27 27 0 34 4 31 18 -4 22 -63 30 -71 9z"/>
<path d="M695 1700 c-11 -18 13 -37 41 -34 32 3 38 9 31 29 -7 17 -62 21 -72
5z"/>
<path d="M634 1637 c-9 -25 0 -62 15 -62 22 0 38 32 25 52 -14 23 -33 28 -40
10z"/>
<path d="M1892 978 c-17 -17 -15 -43 3 -58 21 -18 37 0 33 36 -3 31 -18 40
-36 22z"/>
<path d="M1799 889 c-7 -4 -9 -14 -6 -23 7 -18 62 -22 73 -5 14 23 -39 46 -67
28z"/>
<path d="M1960 890 c-22 -14 -3 -40 30 -40 16 0 30 5 30 10 0 6 0 13 0 18 0
11 -46 21 -60 12z"/>
<path d="M1884 806 c-7 -30 11 -57 32 -49 21 8 14 67 -8 71 -12 2 -19 -5 -24
-22z"/>
<path d="M1454 757 c-9 -25 0 -62 16 -62 10 0 15 10 15 34 0 36 -21 54 -31 28z"/>
<path d="M1360 665 c-17 -20 -4 -35 30 -35 16 0 32 5 35 10 9 15 -13 40 -35
40 -10 0 -23 -7 -30 -15z"/>
<path d="M1521 671 c-23 -15 -5 -41 28 -41 31 0 46 21 28 39 -13 13 -37 14
-56 2z"/>
<path d="M1450 575 c0 -28 4 -35 20 -35 16 0 20 7 20 35 0 28 -4 35 -20 35
-16 0 -20 -7 -20 -35z"/>
</g>
</svg>
