<svg width="10" height="12" viewBox="0 0 10 12" fill="none" xmlns="http://www.w3.org/2000/svg">
<path d="M7.70964 5.83366C8.11766 5.5852 8.462 5.24484 8.71519 4.83973C8.96838 4.43463 9.12343 3.97597 9.16797 3.50033C9.1757 3.07023 9.09862 2.64282 8.94114 2.24252C8.78366 1.84222 8.54885 1.47686 8.25015 1.16732C7.95144 0.857773 7.59467 0.61011 7.20023 0.438472C6.80579 0.266834 6.3814 0.174585 5.9513 0.166992H0.542969V11.8337H6.3763C6.78559 11.8293 7.19002 11.7444 7.56649 11.5837C7.94296 11.423 8.28409 11.1898 8.57041 10.8973C8.85673 10.6048 9.08262 10.2587 9.2352 9.87892C9.38777 9.4991 9.46404 9.09295 9.45963 8.68366V8.58366C9.45992 8.00625 9.2954 7.44076 8.98541 6.95362C8.67541 6.46648 8.23282 6.07795 7.70964 5.83366ZM2.20963 1.83366H5.70964C6.06478 1.82267 6.41479 1.92056 6.7127 2.1142C7.01061 2.30784 7.24217 2.58797 7.3763 2.91699C7.51203 3.35681 7.46813 3.83248 7.2542 4.24004C7.04028 4.64759 6.67372 4.95389 6.23463 5.09199C6.06412 5.14196 5.88732 5.16722 5.70964 5.16699H2.20963V1.83366ZM6.04297 10.167H2.20963V6.83366H6.04297C6.39811 6.82267 6.74812 6.92056 7.04603 7.1142C7.34394 7.30784 7.5755 7.58797 7.70964 7.91699C7.84536 8.35681 7.80147 8.83248 7.58754 9.24004C7.37361 9.64759 7.00705 9.95389 6.56797 10.092C6.39745 10.142 6.22065 10.1672 6.04297 10.167Z" fill="black"/>
</svg>
