<svg width="6" height="12" viewBox="0 0 6 12" fill="none" xmlns="http://www.w3.org/2000/svg">
<path d="M2.79818 3.50033H4.46484L2.63151 11.8337H0.964844L2.79818 3.50033ZM4.19818 0.166992C4.03336 0.166992 3.87224 0.215866 3.7352 0.307434C3.59816 0.399002 3.49135 0.529151 3.42828 0.681423C3.3652 0.833695 3.3487 1.00125 3.38086 1.1629C3.41301 1.32455 3.49238 1.47304 3.60892 1.58958C3.72546 1.70612 3.87395 1.78549 4.0356 1.81765C4.19725 1.8498 4.36481 1.8333 4.51708 1.77023C4.66935 1.70715 4.7995 1.60034 4.89107 1.4633C4.98264 1.32626 5.03151 1.16514 5.03151 1.00033C5.03151 0.779312 4.94371 0.56735 4.78743 0.41107C4.63115 0.25479 4.41919 0.166992 4.19818 0.166992Z" fill="black"/>
</svg>
