<svg width="18" height="10" viewBox="0 0 18 10" fill="none" xmlns="http://www.w3.org/2000/svg">
<path d="M8.16797 9.16634H4.83464C3.72957 9.16634 2.66976 8.72735 1.88836 7.94595C1.10696 7.16455 0.667969 6.10474 0.667969 4.99967C0.667969 3.89461 1.10696 2.8348 1.88836 2.0534C2.66976 1.27199 3.72957 0.833008 4.83464 0.833008H8.16797V2.49967H4.83464C4.17159 2.49967 3.53571 2.76307 3.06687 3.23191C2.59803 3.70075 2.33464 4.33663 2.33464 4.99967C2.33464 5.66272 2.59803 6.2986 3.06687 6.76744C3.53571 7.23628 4.17159 7.49967 4.83464 7.49967H8.16797V9.16634ZM13.168 0.833008H9.83464V2.49967H13.168C13.831 2.49967 14.4669 2.76307 14.9357 3.23191C15.4046 3.70075 15.668 4.33663 15.668 4.99967C15.668 5.66272 15.4046 6.2986 14.9357 6.76744C14.4669 7.23628 13.831 7.49967 13.168 7.49967H9.83464V9.16634H13.168C14.273 9.16634 15.3328 8.72735 16.1142 7.94595C16.8956 7.16455 17.3346 6.10474 17.3346 4.99967C17.3346 3.89461 16.8956 2.8348 16.1142 2.0534C15.3328 1.27199 14.273 0.833008 13.168 0.833008ZM12.3346 4.16634H5.66797V5.83301H12.3346V4.16634Z" fill="black"/>
</svg>
