<svg width="16" height="12" viewBox="0 0 16 12" fill="none" xmlns="http://www.w3.org/2000/svg">
<path d="M4.4017 0.166464C3.61857 0.153796 2.85477 0.409916 2.23759 0.892133C1.62041 1.37435 1.18715 2.05353 1.01003 2.81646C0.831593 3.68228 1.00439 4.58352 1.49042 5.32194C1.97645 6.06036 2.73589 6.57547 3.6017 6.75396L3.6242 6.75813C3.84854 6.80808 4.07769 6.83323 4.30753 6.83313V11.8331H5.9742V1.83313H7.64086V11.8331H9.30753V1.83313H10.9742V0.166464H4.4017ZM2.61003 3.4998C2.61003 3.05777 2.78562 2.63385 3.09818 2.32129C3.41075 2.00873 3.83467 1.83313 4.2767 1.83313V5.16646C3.83467 5.16646 3.41075 4.99087 3.09818 4.67831C2.78562 4.36575 2.61003 3.94182 2.61003 3.4998ZM15.06 10.5756C15.06 10.8229 14.9867 11.0645 14.8494 11.2701C14.712 11.4757 14.5168 11.6359 14.2884 11.7305C14.06 11.8251 13.8086 11.8498 13.5662 11.8016C13.3237 11.7534 13.101 11.6343 12.9261 11.4595C12.7513 11.2847 12.6323 11.062 12.584 10.8195C12.5358 10.577 12.5606 10.3257 12.6552 10.0973C12.7498 9.86887 12.91 9.67365 13.1156 9.53629C13.3211 9.39894 13.5628 9.32563 13.81 9.32563C14.1416 9.32563 14.4595 9.45733 14.6939 9.69175C14.9283 9.92617 15.06 10.2441 15.06 10.5756ZM15.06 7.2423C15.06 7.48952 14.9867 7.7312 14.8494 7.93676C14.712 8.14232 14.5168 8.30254 14.2884 8.39715C14.06 8.49176 13.8086 8.51651 13.5662 8.46828C13.3237 8.42005 13.101 8.301 12.9261 8.12618C12.7513 7.95136 12.6323 7.72864 12.584 7.48616C12.5358 7.24368 12.5606 6.99235 12.6552 6.76394C12.7498 6.53554 12.91 6.34031 13.1156 6.20296C13.3211 6.06561 13.5628 5.9923 13.81 5.9923C14.1416 5.9923 14.4595 6.12399 14.6939 6.35841C14.9283 6.59283 15.06 6.91078 15.06 7.2423ZM15.06 3.90896C15.06 4.15619 14.9867 4.39786 14.8494 4.60343C14.712 4.80899 14.5168 4.9692 14.2884 5.06381C14.06 5.15842 13.8086 5.18318 13.5662 5.13495C13.3237 5.08671 13.101 4.96766 12.9261 4.79285C12.7513 4.61803 12.6323 4.3953 12.584 4.15283C12.5358 3.91035 12.5606 3.65902 12.6552 3.43061C12.7498 3.2022 12.91 3.00698 13.1156 2.86963C13.3211 2.73228 13.5628 2.65896 13.81 2.65896C14.1416 2.65896 14.4595 2.79066 14.6939 3.02508C14.9283 3.2595 15.06 3.57744 15.06 3.90896Z" fill="black"/>
</svg>
