<svg width="12" height="15" viewBox="0 0 12 15" fill="none" xmlns="http://www.w3.org/2000/svg">
<path d="M11.8346 12.667V14.3337H0.167969V12.667H11.8346ZM9.33463 7.01283C9.3072 7.56281 9.14393 8.09744 8.85942 8.56892C8.57491 9.0404 8.17803 9.43405 7.70424 9.71469C7.23044 9.99534 6.69451 10.1542 6.14431 10.1772C5.59412 10.2001 5.04681 10.0864 4.5513 9.84616C3.98017 9.59908 3.49581 9.1871 3.16028 8.66302C2.82474 8.13894 2.65332 7.52661 2.66797 6.90449V0.171159H1.0013V7.01283C1.0295 7.79733 1.24201 8.56418 1.62165 9.25129C2.00129 9.9384 2.53738 10.5265 3.18653 10.9679C3.83568 11.4093 4.57964 11.6917 5.3582 11.7921C6.13676 11.8926 6.92803 11.8083 7.66797 11.5462C8.65223 11.2181 9.50618 10.5846 10.1057 9.73785C10.7051 8.89108 11.0189 7.87517 11.0013 6.83783V0.171159H9.33463V7.01283ZM9.33463 0.166992H11.0013H9.33463ZM2.66797 0.166992H1.0013H2.66797Z" fill="black"/>
</svg>
